<svg xmlns="http://www.w3.org/2000/svg" width="636.764" height="356.057" viewBox="0 0 636.764 356.057">
  <g id="Group_13361" data-name="Group 13361" transform="translate(0 0)">
    <rect id="Rectangle_4583" data-name="Rectangle 4583" width="19.246" height="66.619" transform="translate(556.443 115.857)" fill="#f2f2f2"/>
    <path id="Path_21640" data-name="Path 21640" d="M809.92,234.738l-46.809-55.686-93.958.859-57,55.516,1.152.74H612.9V351.641h196.9V236.167Z" transform="translate(-221.522 -64.794)" fill="#f2f2f2"/>
    <path id="Path_21641" data-name="Path 21641" d="M815.631,179.238,757.154,247.8V351.708H862.265V234.754Z" transform="translate(-273.992 -64.861)" fill="#e6e6e6"/>
    <rect id="Rectangle_4584" data-name="Rectangle 4584" width="21.466" height="18.974" transform="translate(525.354 229.382)" fill="#3f3d56"/>
    <rect id="Rectangle_4585" data-name="Rectangle 4585" width="21.466" height="18.673" transform="translate(525.354 196.541)" fill="#3f3d56"/>
    <rect id="Rectangle_4586" data-name="Rectangle 4586" width="21.466" height="18.974" transform="translate(525.354 229.382)" fill="#fff"/>
    <rect id="Rectangle_4587" data-name="Rectangle 4587" width="21.466" height="18.673" transform="translate(525.354 196.541)" fill="#fff"/>
    <rect id="Rectangle_4588" data-name="Rectangle 4588" width="21.466" height="18.974" transform="translate(429.956 224.348)" fill="#fff"/>
    <rect id="Rectangle_4589" data-name="Rectangle 4589" width="21.466" height="18.673" transform="translate(429.956 191.506)" fill="#fff"/>
    <rect id="Rectangle_4590" data-name="Rectangle 4590" width="19.246" height="66.619" transform="translate(404.569 115.857)" fill="#f2f2f2"/>
    <path id="Path_21642" data-name="Path 21642" d="M571.92,234.738l-46.809-55.686-93.958.859-57,55.516,1.152.74H374.9V351.641h196.9V236.167Z" transform="translate(-135.396 -64.794)" fill="#f2f2f2"/>
    <path id="Path_21643" data-name="Path 21643" d="M577.631,179.238,519.154,247.8V351.708H624.265V234.754Z" transform="translate(-187.867 -64.861)" fill="#e6e6e6"/>
    <rect id="Rectangle_4591" data-name="Rectangle 4591" width="21.466" height="18.974" transform="translate(373.479 229.382)" fill="#3f3d56"/>
    <rect id="Rectangle_4592" data-name="Rectangle 4592" width="21.466" height="18.673" transform="translate(373.479 196.541)" fill="#3f3d56"/>
    <rect id="Rectangle_4593" data-name="Rectangle 4593" width="21.466" height="18.974" transform="translate(373.479 229.382)" fill="#fff"/>
    <rect id="Rectangle_4594" data-name="Rectangle 4594" width="21.466" height="18.673" transform="translate(373.479 196.541)" fill="#fff"/>
    <rect id="Rectangle_4595" data-name="Rectangle 4595" width="21.466" height="18.974" transform="translate(278.082 224.348)" fill="#fff"/>
    <rect id="Rectangle_4596" data-name="Rectangle 4596" width="21.466" height="18.673" transform="translate(278.082 191.506)" fill="#fff"/>
    <rect id="Rectangle_4597" data-name="Rectangle 4597" width="25.717" height="89.02" transform="translate(242.587 58.363)" fill="#f2f2f2"/>
    <path id="Path_21644" data-name="Path 21644" d="M297.211,162.522l-62.547-74.41L109.112,89.259,32.951,163.442l1.539.989H33.94v154.3h263.1v-154.3Z" transform="translate(-11.924 -31.885)" fill="#f2f2f2"/>
    <path id="Path_21645" data-name="Path 21645" d="M304.841,88.36,226.7,179.97V318.822H367.155V162.543Z" transform="translate(-82.037 -31.975)" fill="#e6e6e6"/>
    <rect id="Rectangle_4598" data-name="Rectangle 4598" width="28.684" height="25.353" transform="translate(201.044 210.06)" fill="#3f3d56"/>
    <rect id="Rectangle_4599" data-name="Rectangle 4599" width="28.684" height="24.951" transform="translate(201.044 166.176)" fill="#3f3d56"/>
    <rect id="Rectangle_4600" data-name="Rectangle 4600" width="28.684" height="25.353" transform="translate(201.044 210.06)" fill="#fff"/>
    <rect id="Rectangle_4601" data-name="Rectangle 4601" width="28.684" height="24.951" transform="translate(201.044 166.176)" fill="#fff"/>
    <rect id="Rectangle_4602" data-name="Rectangle 4602" width="28.684" height="25.353" transform="translate(73.57 203.333)" fill="#fff"/>
    <rect id="Rectangle_4603" data-name="Rectangle 4603" width="28.684" height="24.951" transform="translate(73.57 159.449)" fill="#fff"/>
    <rect id="Rectangle_4604" data-name="Rectangle 4604" width="615.125" height="1.276" transform="translate(0 286.277)" fill="#3f3d56"/>
    <ellipse id="Ellipse_38996" data-name="Ellipse 38996" cx="18.569" cy="37.889" rx="18.569" ry="37.889" transform="translate(78.345 187.034)" fill="#132743"/>
    <path id="Path_21646" data-name="Path 21646" d="M253.745,623.486c-7.437-44.621-.075-89.081,0-89.525l1.447.245c-.075.441-7.395,44.668,0,89.039Z" transform="translate(-155.116 -336.546)" fill="#d7385e"/>
    <rect id="Rectangle_4605" data-name="Rectangle 4605" width="19.043" height="1.468" transform="translate(96.469 225.755) rotate(-28.142)" fill="#d7385e"/>
    <rect id="Rectangle_4606" data-name="Rectangle 4606" width="1.468" height="19.043" transform="translate(78.748 222.567) rotate(-61.842)" fill="#d7385e"/>
    <ellipse id="Ellipse_38997" data-name="Ellipse 38997" cx="36.319" cy="74.105" rx="36.319" ry="74.105" transform="translate(15.979 92.385)" fill="#d7385e"/>
    <path id="Path_21647" data-name="Path 21647" d="M185.684,576.24c-14.527-87.159-.147-174,0-174.868l1.447.245c-.147.865-14.484,87.473,0,174.382Z" transform="translate(-129.341 -288.566)" fill="#3f3d56"/>
    <rect id="Rectangle_4607" data-name="Rectangle 4607" width="37.246" height="1.468" transform="translate(51.76 168.739) rotate(-28.142)" fill="#3f3d56"/>
    <rect id="Rectangle_4608" data-name="Rectangle 4608" width="1.468" height="37.246" transform="translate(17.099 161.269) rotate(-61.842)" fill="#3f3d56"/>
    <ellipse id="Ellipse_38998" data-name="Ellipse 38998" cx="49.7" cy="101.408" rx="49.7" ry="101.408" transform="translate(88.617 20.48)" fill="#d7385e"/>
    <path id="Path_21648" data-name="Path 21648" d="M321.882,539.756c-19.871-119.226-.2-238.017,0-239.2l1.447.245c-.2,1.184-19.829,119.741,0,238.717Z" transform="translate(-177.763 -252.083)" fill="#3f3d56"/>
    <rect id="Rectangle_4609" data-name="Rectangle 4609" width="50.968" height="1.468" transform="translate(137.709 125.205) rotate(-28.142)" fill="#3f3d56"/>
    <rect id="Rectangle_4610" data-name="Rectangle 4610" width="1.468" height="50.968" transform="matrix(0.472, -0.882, 0.882, 0.472, 90.278, 114.501)" fill="#3f3d56"/>
    <ellipse id="Ellipse_38999" data-name="Ellipse 38999" cx="18.569" cy="37.889" rx="18.569" ry="37.889" transform="translate(537.26 187.034)" fill="#132743"/>
    <path id="Path_21649" data-name="Path 21649" d="M968.591,623.486c7.437-44.621.075-89.081,0-89.525l-1.447.245c.075.441,7.395,44.668,0,89.039Z" transform="translate(-414.477 -336.546)" fill="#d7385e"/>
    <rect id="Rectangle_4611" data-name="Rectangle 4611" width="1.468" height="19.043" transform="translate(538.785 218.072) rotate(-61.858)" fill="#d7385e"/>
    <rect id="Rectangle_4612" data-name="Rectangle 4612" width="19.043" height="1.468" transform="translate(556.51 230.263) rotate(-28.158)" fill="#d7385e"/>
    <ellipse id="Ellipse_39000" data-name="Ellipse 39000" cx="36.319" cy="74.105" rx="36.319" ry="74.105" transform="translate(564.126 92.385)" fill="#d7385e"/>
    <path id="Path_21650" data-name="Path 21650" d="M1034.859,576.24c14.527-87.159.147-174,0-174.868l-1.447.245c.147.865,14.484,87.473,0,174.382Z" transform="translate(-438.457 -288.566)" fill="#3f3d56"/>
    <rect id="Rectangle_4613" data-name="Rectangle 4613" width="1.468" height="37.246" transform="translate(567.443 152.47) rotate(-61.858)" fill="#3f3d56"/>
    <rect id="Rectangle_4614" data-name="Rectangle 4614" width="37.246" height="1.468" transform="translate(602.112 177.545) rotate(-28.158)" fill="#3f3d56"/>
    <ellipse id="Ellipse_39001" data-name="Ellipse 39001" cx="49.7" cy="101.408" rx="49.7" ry="101.408" transform="translate(464.727 20.48)" fill="#d7385e"/>
    <path id="Path_21651" data-name="Path 21651" d="M897.3,539.756c19.871-119.226.2-238.017,0-239.2l-1.447.245c.2,1.184,19.829,119.741,0,238.717Z" transform="translate(-388.68 -252.083)" fill="#3f3d56"/>
    <rect id="Rectangle_4615" data-name="Rectangle 4615" width="1.468" height="50.968" transform="translate(469.395 102.462) rotate(-61.858)" fill="#3f3d56"/>
    <rect id="Rectangle_4616" data-name="Rectangle 4616" width="50.968" height="1.468" transform="matrix(0.882, -0.472, 0.472, 0.882, 516.834, 137.262)" fill="#3f3d56"/>
    <path id="Path_21652" data-name="Path 21652" d="M685.7,323.36l5.874-4.7c-4.564-.5-6.439,1.985-7.206,3.955-3.565-1.48-7.446.46-7.446.46l11.754,4.267a8.894,8.894,0,0,0-2.976-3.984Z" transform="translate(-309.452 -258.612)" fill="#3f3d56"/>
    <path id="Path_21653" data-name="Path 21653" d="M460.7,258.36l5.874-4.7c-4.564-.5-6.439,1.985-7.206,3.955-3.565-1.48-7.446.46-7.446.46l11.754,4.267A8.894,8.894,0,0,0,460.7,258.36Z" transform="translate(-228.031 -235.09)" fill="#3f3d56"/>
    <path id="Path_21654" data-name="Path 21654" d="M827.7,229.36l5.875-4.7c-4.564-.5-6.439,1.985-7.206,3.955-3.565-1.48-7.447.46-7.447.46l11.754,4.267A8.893,8.893,0,0,0,827.7,229.36Z" transform="translate(-360.838 -224.596)" fill="#3f3d56"/>
    <path id="Path_21655" data-name="Path 21655" d="M839.68,660.925a8.883,8.883,0,0,0-4.448,1.194,9.56,9.56,0,0,0-15.972,7.1h29.322A8.928,8.928,0,0,0,839.68,660.925Z" transform="translate(-360.962 -382.029)" fill="#3f3d56"/>
    <path id="Path_21656" data-name="Path 21656" d="M372.68,660.925a8.883,8.883,0,0,0-4.448,1.194,9.56,9.56,0,0,0-15.972,7.1h29.322A8.928,8.928,0,0,0,372.68,660.925Z" transform="translate(-191.968 -382.029)" fill="#3f3d56"/>
    <path id="Path_21657" data-name="Path 21657" d="M611.68,660.925a8.883,8.883,0,0,0-4.448,1.194,9.56,9.56,0,0,0-15.972,7.1h29.322A8.928,8.928,0,0,0,611.68,660.925Z" transform="translate(-278.455 -382.029)" fill="#3f3d56"/>
    <path id="Path_21658" data-name="Path 21658" d="M423.786,404.228h-84.6v2.729h13.193v25.925h2.729V406.957H406.5v25.925h2.729V406.957h14.558Z" transform="translate(-122.743 -146.278)" fill="#3f3d56"/>
    <rect id="Rectangle_4617" data-name="Rectangle 4617" width="84.595" height="2.729" transform="translate(216.614 249.785)" fill="#3f3d56"/>
    <rect id="Rectangle_4618" data-name="Rectangle 4618" width="84.595" height="2.729" transform="translate(216.614 242.963)" fill="#3f3d56"/>
    <rect id="Rectangle_4619" data-name="Rectangle 4619" width="84.595" height="2.729" transform="translate(216.614 236.141)" fill="#3f3d56"/>
    <path id="Path_21659" data-name="Path 21659" d="M630.786,404.228h-84.6v2.729h13.193v25.925h2.729V406.957H613.5v25.925h2.729V406.957h14.558Z" transform="translate(-197.651 -146.278)" fill="#3f3d56"/>
    <rect id="Rectangle_4620" data-name="Rectangle 4620" width="84.595" height="2.729" transform="translate(348.707 249.785)" fill="#3f3d56"/>
    <rect id="Rectangle_4621" data-name="Rectangle 4621" width="84.595" height="2.729" transform="translate(348.707 242.963)" fill="#3f3d56"/>
    <rect id="Rectangle_4622" data-name="Rectangle 4622" width="84.595" height="2.729" transform="translate(348.707 236.141)" fill="#3f3d56"/>
  </g>
  <text id="No_data_found" data-name="No data found" transform="translate(202.999 349.057)" fill="#3f464b" font-size="32" font-family="Helvetica-Light, Helvetica" opacity="0.5" font-weight="300"><tspan x="0" y="0">No data found</tspan></text>
</svg>
